# AST/ASF file generated using VICON BodyLanguage
# -----------------------------------------------
:version 1.10
:name VICON
:units
  mass 1.0
  length 0.45
  angle deg
:documentation
   .ast/.asf automatically generated from VICON data using
   VICON BodyBuilder and BodyLanguage model FoxedUp or BRILLIANT.MOD
:root
   order TX TY TZ RX RY RZ
   axis XYZ
   position 0 0 0  
   orientation 0 0 0 
:bonedata
  begin
     id 1 
     name lhipjoint
     direction 0.63403 -0.759788 0.143974 
     length 2.51904 
     axis 0 0 0  XYZ
  end
  begin
     id 2 
     name lfemur
     direction 0.34202 -0.939693 0  
     length 7.42313  
     axis 0 0 20  XYZ
    dof rx ry rz
    limits (-160.0 20.0)
           (-70.0 70.0)
           (-60.0 70.0)
  end
  begin
     id 3 
     name ltibia
     direction 0.34202 -0.939693 0   
     length 8.10141   
     axis 0 0 20   XYZ
    dof rx
    limits (-10.0 170.0)
  end
  begin
     id 4 
     name lfoot
     direction 0.0927455 -0.254816 0.962532   
     length 2.14078   
     axis -90 7.62852e-016 20   XYZ
    dof rx rz
    limits (-45.0 90.0)
           (-70.0 20.0)
  end
  begin
     id 5 
     name ltoes
     direction 1.53556e-011 -4.21949e-011 1   
     length 1.07182   
     axis -90 7.62852e-016 20   XYZ
    dof rx
    limits (-90.0 20.0)
  end
  begin
     id 6 
     name rhipjoint
     direction -0.659892 -0.738223 0.139888   
     length 2.59263  
     axis 0 0 0  XYZ 
  end
  begin
     id 7 
     name rfemur
     direction -0.34202 -0.939693 0   
     length 7.58575   
     axis 0 0 -20   XYZ
    dof rx ry rz
    limits (-160.0 20.0)
           (-70.0 70.0)
           (-70.0 60.0)
  end
  begin
     id 8 
     name rtibia
     direction -0.34202 -0.939693 0   
     length 8.19358   
     axis 0 0 -20   XYZ
    dof rx
    limits (-10.0 170.0)
 end
 begin
     id 9 
     name rfoot
     direction -0.0856543 -0.235333 0.968133   
     length 2.13415  
     axis -90 -7.62852e-016 -20   XYZ
    dof rx rz
    limits (-45.0 90.0)
           (-20.0 70.0)
  end
  begin
     id 10 
     name rtoes
     direction -1.53551e-011 -4.21811e-011 1   
     length 1.07055   
     axis -90 -7.62852e-016 -20   XYZ
    dof rx
    limits (-90.0 20.0)
  end
  begin
     id 11 
     name lowerback
     direction 0.025219 0.998394 -0.0507326   
     length 1.91844   
     axis 0 0 0   XYZ
    dof rx ry rz
    limits (-20.0 45.0)
           (-30.0 30.0)
           (-30.0 30.0)
  end
  begin
     id 12 
     name upperback
     direction 0.0213103 0.99967 -0.0143101   
     length 1.92246   
     axis 0 0 0   XYZ
    dof rx ry rz
    limits (-20.0 45.0)
           (-30.0 30.0)
           (-30.0 30.0)
  end
  begin
     id 13 
     name thorax
     direction 0.00920974 0.99991 0.00971518   
     length 1.92239   
     axis 0 0 0   XYZ
    dof rx ry rz
    limits (-20.0 45.0)
           (-30.0 30.0)
           (-30.0 30.0)
  end
  begin
     id 14 
     name lowerneck
     direction 0.0598257 0.997249 0.0437612   
     length 3.13679   
     axis 0 0 0   XYZ
    dof rx ry rz
    limits (-20.0 45.0)
           (-30.0 30.0)
           (-30.0 30.0)
  end
  begin
     id 15 
     name upperneck
     direction -0.035342 0.999338 0.00863891   
     length 3.16283   
     axis 0 0 0   XYZ
    dof rx ry rz
    limits (-20.0 45.0)
           (-30.0 30.0)
           (-30.0 30.0)
  end
  begin
     id 16
     name head
     direction 0.37144 0.811566 0.450991  
     length 1.2838  
     axis 0 0 0   XYZ
    dof rx ry rz
    limits (-20.0 45.0)
           (-30.0 30.0)
           (-30.0 30.0)
  end
  begin
     id 17 
     name lclavicle
     direction 0.961094 0.274654 -0.0293862  
     length 3.63466  
     axis 0 0 0   XYZ
    dof ry rz
    limits (-20.0 10.0)
           (0.0 20.0)
  end
  begin
     id 18 
     name lhumerus
     direction 1 -4.48963e-011 1.10303e-027   
     length 5.12842   
     axis 180 -30 -90   XYZ
    dof rx ry rz
    limits (-60.0 90.0)
           (-90.0 90.0)
           (-90.0 90.0)
  end
  begin
     id 19
     name lradius
     direction 1 -4.48968e-011 4.13199e-027   
     length 3.47396   
     axis 180 -30 -90   XYZ
    dof rx
    limits (-10.0 170.0)
  end
  begin
     id 20
     name lwrist
     direction 1 -4.48948e-011 9.12708e-027   
     length 1.73698   
     axis -6.84618e-015 90 90   XYZ
    dof ry
    limits (-180.0 0.0)
 end
  begin
     id 21 
     name lhand
     direction 1 -4.49057e-011 1.82749e-026   
     length 0.728607   
     axis -1.16502e-014 90 90   XYZ
    dof rx rz
    limits (-90.0 90.0)
           (-45.0 45.0)
  end
  begin
     id 22 
     name lfingers
     direction 1 -4.48912e-011 3.64949e-026   
     length 0.587422   
     axis -2.33008e-014 90 90   XYZ
    dof rx
    limits (0.0 90.0)
  end
  begin
     id 23
     name lthumb
     direction 0.707107 -6.34995e-011 0.707107   
     length 0.843424   
     axis -90 45 5.69224e-014   XYZ
    dof rx rz
    limits (-45.0 45.0)
           (-45.0 45.0)
  end
  begin
     id 24 
     name rclavicle
     direction -0.90514 0.421881 -0.0523369   
     length 3.57139  
     axis 0 0 0   XYZ 
    dof ry rz
    limits (-10.0 20.0)
           (-20.0 0.0)
  end
  begin
     id 25 
     name rhumerus
     direction -1 -4.48954e-011 -1.76662e-027  
     length 5.48477   
     axis 180 30 90   XYZ
    dof rx ry rz
    limits (-90.0 60.0)
           (-90.0 90.0)
           (-90.0 90.0)
  end
  begin
     id 26 
     name rradius
     direction -1 -4.48982e-011 1.26841e-027   
     length 3.47856   
     axis 180 30 90   XYZ
    dof rx
    limits (-10.0 170.0)
  end
  begin
     id 27 
     name rwrist
     direction -1 -4.49037e-011 9.13554e-027   
     length 1.73928   
     axis -6.84618e-015 -90 -90   XYZ
    dof ry
    limits (-180.0 0.0)
  end
  begin
     id 28
     name rhand
     direction -1 -4.48871e-011 1.82397e-026   
     length 0.709974   
     axis -1.16502e-014 -90 -90   XYZ
    dof rx rz
    limits (-90.0 90.0)
           (-45.0 45.0)
  end
  begin
     id 29
     name rfingers
     direction -1 -4.48994e-011 3.65258e-026   
     length 0.572399   
     axis -2.33008e-014 -90 -90   XYZ
    dof rx
    limits (0.0 90.0)
  end
  begin
     id 30
     name rthumb
     direction -0.707107 -6.34861e-011 0.707107   
     length 0.821855   
     axis -90 -45 -5.69224e-014   XYZ
    dof rx rz
    limits (-45.0 45.0)
           (-45.0 45.0)
  end
:hierarchy
  begin
    root lhipjoint rhipjoint lowerback
    lhipjoint lfemur
    lfemur ltibia
    ltibia lfoot
    lfoot ltoes
    rhipjoint rfemur
    rfemur rtibia
    rtibia rfoot
    rfoot rtoes
    lowerback upperback
    upperback thorax
    thorax lowerneck lclavicle rclavicle
    lowerneck upperneck
    upperneck head
    lclavicle lhumerus
    lhumerus lradius
    lradius lwrist
    lwrist lhand lthumb
    lhand lfingers
    rclavicle rhumerus
    rhumerus rradius
    rradius rwrist
    rwrist rhand rthumb
    rhand rfingers
  end

#!OML:ASF F:\VICON\USERDATA\INSTALL\Justin1\Justin1.ASF
:FULLY-SPECIFIED
:DEGREES
2057
root -13.5845 18.1785 11.4434 12.9006 -68.9129 -9.05904
lowerback 8.49476 1.7615 5.60363
upperback 2.21088 2.82398 4.10021
thorax -2.39823 1.33414 0.814895
lowerneck -10.5323 -0.132013 -2.66123
upperneck 13.3934 0.502236 -1.97751
head 5.78614 -0.0625791 -0.149444
rclavicle -1.25234e-014 -2.70347e-014
rhumerus -24.8375 -9.88848 -75.5488
rradius 31.35
rwrist -8.30287
rhand -26.894 16.6134
rfingers 7.12502
rthumb -0.31772 -13.3661
lclavicle -1.25234e-014 -2.70347e-014
lhumerus -36.0107 17.7477 84.4337
lradius 31.1487
lwrist -10.2132
lhand -9.72796 30.7219
lfingers 7.12502
lthumb 16.2456 60.0613
rfemur -22.7097 6.1969 24.9652
rtibia 31.0097
rfoot -15.477 0.174689
rtoes 12.53
lfemur -20.874 -12.6462 -9.5956
ltibia 51.6105
lfoot -6.10433 -9.62602
ltoes -2.60958
2058
root -13.6101 18.1824 11.4312 12.4543 -69.0052 -8.48427
lowerback 8.43584 1.83857 5.4711
upperback 2.18184 2.91374 4.10381
thorax -2.40065 1.37971 0.884567
lowerneck -10.2651 -0.0256246 -2.55909
upperneck 13.0906 0.66007 -2.30772
head 5.64692 0.00173885 -0.256945
rclavicle -3.29983e-014 -1.11319e-014
rhumerus -24.6093 -9.63113 -75.4064
rradius 31.3679
rwrist -8.59058
rhand -26.9919 16.7386
rfingers 7.12502
rthumb -0.412225 -13.2408
lclavicle -3.29983e-014 -1.11319e-014
lhumerus -36.1653 17.8269 84.5716
lradius 31.2194
lwrist -10.3862
lhand -9.68679 30.4803
lfingers 7.12502
lthumb 16.2852 59.8165
rfemur -22.7287 6.10615 24.8129
rtibia 30.9934
rfoot -15.7953 0.224425
rtoes 12.9948
lfemur -21.0799 -12.5931 -9.77487
ltibia 51.7452
lfoot -5.68224 -9.79432
ltoes -2.78358
2059
root -13.6355 18.1856 11.4199 12.3292 -69.1672 -8.33126
lowerback 8.47985 1.9219 5.48112
upperback 2.17657 3.02888 4.08644
thorax -2.42646 1.43629 0.847928
lowerneck -10.3119 -0.0112573 -2.51067
upperneck 13.1218 0.684065 -2.3752
head 5.66508 0.00986945 -0.284247
rclavicle 1.39149e-014 -4.77083e-014
rhumerus -24.316 -9.94884 -75.2907
rradius 31.2648
rwrist -8.35398
rhand -26.9829 16.9114
rfingers 7.12502
rthumb -0.403575 -13.0679
lclavicle 1.39149e-014 -4.77083e-014
lhumerus -36.3024 17.8628 84.5991
lradius 31.3224
lwrist -10.5067
lhand -9.74003 30.3332
lfingers 7.12502
lthumb 16.234 59.6735
rfemur -22.6595 6.04916 24.8317
rtibia 30.978
rfoot -16.0287 0.447402
rtoes 13.9746
lfemur -21.1403 -12.5169 -9.82989
ltibia 51.8684
lfoot -5.20605 -9.93793
ltoes -2.10766
2060
root -13.6622 18.1862 11.4056 12.0736 -69.2809 -8.15003
lowerback 8.56893 1.95847 5.44245
upperback 2.25257 3.07453 4.06778
thorax -2.39679 1.4599 0.843775
lowerneck -10.4431 0.0243013 -2.40928
upperneck 13.0894 0.731203 -2.44383
head 5.67778 0.0329603 -0.318617
rclavicle -6.87795e-014 -3.18055e-015
rhumerus -23.841 -10.5103 -75.2336
rradius 30.9932
rwrist -7.86114
rhand -26.8644 17.1734
rfingers 7.12502
rthumb -0.289146 -12.8061
lclavicle -6.87795e-014 -3.18055e-015
lhumerus -36.328 17.8125 84.6316
lradius 31.4333
lwrist -10.4797
lhand -9.78763 30.214
lfingers 7.12502
lthumb 16.1881 59.5581
rfemur -22.485 6.02038 24.87
rtibia 30.9625
rfoot -16.1719 0.376418
rtoes 12.5258
lfemur -21.0821 -12.5088 -9.89451
ltibia 51.985
lfoot -4.76108 -10.0329
ltoes -2.13013
2061
root -13.6882 18.1881 11.3945 11.8386 -69.3365 -7.95576
lowerback 8.53355 1.95308 5.54936
upperback 2.31646 3.06681 4.01467
thorax -2.30198 1.45802 0.732934
lowerneck -10.3445 0.0852015 -2.23126
upperneck 12.8998 0.800972 -2.61101
head 5.60276 0.0680028 -0.394353
rclavicle -7.95139e-016 1.90833e-014
rhumerus -23.4995 -10.6834 -75.2866
rradius 30.935
rwrist -7.70374
rhand -26.7297 17.2039
rfingers 7.12502
rthumb -0.158999 -12.7758
lclavicle -7.95139e-016 1.90833e-014
lhumerus -36.3475 17.744 84.622
lradius 31.4661
lwrist -10.5016
lhand -9.644 30.1264
lfingers 7.12502
lthumb 16.3264 59.4591
rfemur -22.3504 5.90444 24.8938
rtibia 30.9488
rfoot -16.3 0.333769
rtoes 11.3477
lfemur -21.0823 -12.5758 -9.95498
ltibia 52.1028
lfoot -4.41278 -10.0923
ltoes -2.71541
2062
root -13.7089 18.1882 11.3881 11.9999 -69.4132 -8.07265
lowerback 8.60273 1.99028 5.70794
upperback 2.21453 3.14357 4.05802
thorax -2.438 1.49117 0.677803
lowerneck -10.1549 0.0998901 -2.15492
upperneck 12.8202 0.817068 -2.74055
head 5.54651 0.0726565 -0.446067
rclavicle 5.1684e-014 3.02153e-014
rhumerus -23.4464 -10.5658 -75.1966
rradius 31.0748
rwrist -7.84408
rhand -26.7145 17.1048
rfingers 7.12502
rthumb -0.144304 -12.8749
lclavicle 5.1684e-014 3.02153e-014
lhumerus -36.5737 17.7877 84.6467
lradius 31.498
lwrist -10.6028
lhand -9.45888 30.1006
lfingers 7.12502
lthumb 16.5047 59.4186
rfemur -22.3392 5.79287 24.9946
rtibia 30.9374
rfoot -16.4393 0.399671
rtoes 11.0679
lfemur -21.1937 -12.582 -9.87762
ltibia 52.228
lfoot -3.9901 -10.2117
ltoes -1.83104
2063
root -13.7301 18.1866 11.3791 12.1853 -69.4822 -8.17692
lowerback 8.51648 2.02768 5.82089
upperback 2.24388 3.19206 4.08881
thorax -2.35348 1.51615 0.646393
lowerneck -10.2397 0.112596 -2.10758
upperneck 12.7325 0.832822 -2.76972
head 5.53381 0.082118 -0.461528
rclavicle 1.05753e-013 6.04305e-014
rhumerus -23.0668 -10.5397 -75.193
rradius 31.0726
rwrist -7.93448
rhand -26.7956 17.0478
rfingers 7.12502
rthumb -0.222682 -12.9318
lclavicle 1.05753e-013 6.04305e-014
lhumerus -36.5655 17.854 84.7136
lradius 31.5769
lwrist -10.6238
lhand -9.32977 30.1077
lfingers 7.12502
lthumb 16.629 59.4153
rfemur -22.3728 5.75195 25.0924
rtibia 30.9251
rfoot -16.5563 0.373979
rtoes 10.5307
lfemur -21.3545 -12.4805 -9.77144
ltibia 52.3519
lfoot -3.52144 -10.3711
ltoes -0.503617
